<svg width="68" height="50" xmlns="http://www.w3.org/2000/svg"><g fill="none" fill-rule="evenodd"><path d="M0 0h68v50H0z"/><path d="M67.703 25.469c0-.184-.078-.341-.143-.486-.078-.117-.235-.236-.235-.42l.105-.301c0-.236-.183-.485-.262-.695l-.274-.826a6.463 6.463 0 0 0-.404-.8c-.235-.368-.653-.42-.835-.565l-.183-.38c-.457-.275-.953-.578-1.462-.787-.143-.04-.378-.08-.535-.145l-.3-.117c-.104-.027-.143-.08-.235-.145-.183-.144-.378-.302-.717-.302-.183 0-.3.066-.458.105-.104.026-.22.026-.273.026l-.34-.065c-.117-.066-.117-.066-.234-.066-.222 0-.6.04-.797.144-.078.04-.195.224-.26.25 0 0-.34-.066-.497-.066-.195.027-.639.105-.639.105-.548.288-1.2.76-1.71 1.154-.13.105-.039.316-.143.407-.104.092-.404.053-.483.118-.379.368-.718.918-.913 1.364 0 0-.209.932-.248.997-.079.119-.17.302-.183.38 0 0-.196.342-.3.499-.144.302-.183.539-.222.656l.026.565c0 .196.105.301.105.301 0 .197-.118.368-.144.446-.04.158-.079.275-.079.46 0 .144.34 1.849.34 1.849.182.577.482.997.757 1.443.183.315.365.616.522.918.04.079.104.223.117.407.066.262.105.525.261.721.444.407.914.8 1.619 1.063l.443.065c.104 0 .496.013.535.053 0 0 .079.183.196.288.195.184.522.407.522.407.522.105 1.161.118 1.357.118.143 0 .274-.04.457-.078.117-.08.274-.066.378-.08.157-.026.327-.17.679.04.065.04.156.04.222.04.417 0 1.135-.407 2.44-1.102.039 0 .144-.119.157-.119l.3-.105c.274-.117.705-.236.953-.616.56-.958.717-1.26.717-2.112 0-.38-.104-.643-.274-.866-.313-.38-.822-.314-1.278-.314h-.144c-.066 0-.483 0-.6.261 0 0-.418.5-.679.788-.235.302-.235.406-.418.616-.104.106-.313.223-.404.342-.079.157-.34.38-.34.38-.182.144-.444.078-.678.105-.118.026-.235.026-.34.039-.078.04-.3.118-.404.158-.104.038-.34 0-.366 0-.038 0-.117-.027-.221-.106-.196-.144-.3-.183-.522-.183-.235 0-.614-.079-.614-.079a4.191 4.191 0 0 0-.482-.485c-.157-.144-.431-.053-.64-.118-.6-.275-.783-.971-.783-.971s-.078-.302-.078-.407a16.073 16.073 0 0 0-.118-.524c-.078-.224-.143-.341-.143-.682 0 0 .482-.276.705-.276.039 0 .143.027.235.04.117.025.235.079.378.079.144 0 .274-.08.404-.119.079-.026.222-.065.222-.065.144 0 .274 0 .379.065.078.04.196.119.34.119.143 0 .234-.08.495-.184a1.05 1.05 0 0 1 .495-.184s.836.065 1.175.118c.744.079 1.097.118 1.24.118.117 0 .235-.04.562-.118.182-.066.443-.118.443-.118.144 0 .365.04.444.065.156.08.313.119.405.119.6 0 1.5-.525 1.579-1.286.025-.236.234-.473.339-.787.078-.276-.014-.433-.014-.551zm-13.089-1.273c0-.197-.04-.38-.143-.577-.027-.144-.079-.275-.079-.381-.026-.078-.026-.222-.026-.341.026-.261.026-.563-.026-.866a2.03 2.03 0 0 0-.365-.604c-.066-.038-.118-.104-.118-.143a2.442 2.442 0 0 1-.183-.262c-.273-.538-.639-1.142-1.043-1.167a.742.742 0 0 0-.418.144l-.235-.04c-.195-.117-.3-.196-.418-.196-.22 0-.99.196-1.278.3l-.444.317c-.065.038-.105.274-.105.274s-.182-.052-.222-.052c-.182.039-.612.039-.782.262 0 0-.196.222-.275.315-.339.341-.404.46-.652.447-.157 0-.195-.028-.3-.526-.078-.484-.235-1.285-1.214-1.298-.221-.027-.456-.027-.574-.027l-.404.224c-.144 0-.314-.381-.574-.263l-1.554.106c-.235-.04-.495-.145-.666-.132-.235.012-.339.17-.43.183-.64.157-1.043.8-1.057 1.299-.026.42.3.827.496 1.05.157.184.704.721 1.318.748.183 0 .34-.08.6-.197.078-.04.196-.118.196-.118s.705.34 1.018.603c.235.46.196.998.183 1.561-.027.183-.027.38-.027.604l-.025 1.298V28l-.066.46c-.065.195-.078.485-.065.72 0 .184.026.486.079.747.025.08.064.264.064.303 0 0-.143.917-.235 1.22-.077.157-.312.275-.522.38-.077.04-.195.118-.195.118.026-.025-.313-.105-.313-.105a1.695 1.695 0 0 0-.444-.079 1.154 1.154 0 0 0-1.2 1.168c0 .367.078.643.26.8 0 0 .418.604.718.604.144 0 .261-.066.56-.184.106-.066.184.025.184.025s.222-.078.274-.065c.156.118.34.145.483.145.143 0 .339.039.535-.027.078-.025.378-.17.378-.17.287.17.535.315.679.329h1.358c.181 0 .364 0 .612-.12.105-.039.118-.17.157-.183l.34.144c.143.066.3.106.443.119.183 0 .34-.066.483-.105l.3-.04a.792.792 0 0 1 .34-.066h.3c.6-.039 1.044-.919 1.057-1.284 0-.303-.156-.604-.366-.8a.932.932 0 0 0-.652-.369c-.157 0-.3.04-.444.08a3.91 3.91 0 0 1-.365.066c-.235-.028-.953-.028-1.28-.119-.365-.144-.796-.525-1.017-.747-.118-.264-.04-.905 0-1.26 0-.145.04-.236.04-.368l.025-.38c.04-.486.065-1.39.065-1.39s0-.276-.026-.341c0-.08-.039-.157-.039-.197 0-.079-.117-.643.104-.786.144-.12.104-.316.262-.447.495-.368.704-.577.939-1.102a9.83 9.83 0 0 0 .235-.564c.118-.144.653-.485.992-.787.156-.223.222-.237.378-.341a.833.833 0 0 1 .405-.184l.078.197c0 .105-.04.196-.078.275-.144.341-.182.564-.182.748-.027.46.678 1.39 1.082 1.627.183.104.379.156.562.182l.078.04c.144.12.26.237.456.237.157 0 .366-.105.496-.277.144-.157.3 0 .379-.157 0 0 .182-.235.365-.314.183-.105.313-.198.457-.38.235-.236.313-.577.313-.801zm-12.866 8.62c0-1.22-.979-1.3-1.58-1.34-.182-.025-.378-.025-.443-.064-.196-.08-.366-.237-.366-.38 0 0 .065-.302.104-.46.105-.407.04-.603.04-.722 0-.157.065-.341-.04-.603-.025-.079-.039-.157-.064-.197 0 0 .039-.157.064-.275.04-.118.066-.237.066-.368 0-.222-.078-.446-.157-.642-.026-.066-.038-.118-.065-.158l-.025-.315c.025-.078.025-.078.025-.236 0-.118-.025-.406.04-.525.039-.065.064-.144.104-.197.104-.157.222-.38.222-.563 0 0 .143-2.086.143-2.27v-.143c.026-.368.026-.788-.026-1.09v.08a.821.821 0 0 0-.144-.447l-.025-.237c-.027-.406-.027-.865-.366-1.062-.379-.236-1.044-.301-1.2-.301-.119 0-.236.026-.38.04-.103 0-.182-.028-.234-.028 0 0-.156-.04-.26-.078-.262-.144-.419-.223-.575-.223-.157 0-.196.17-.34.249-.078.027-.365-.065-.378-.065l-.339-.08c-.222-.065-.34-.104-.457-.104-.561 0-1.853 1.403-1.853 2.02 0 .236.104.46.3.656.378.38.992.564 1.292.564.222 0 .444-.105.496-.105l.495.289.183.04c.118.039.183.064.3.064.066.027.262.04.301.067l.144.274s.025.224-.262.38l-.143.08-.065.157c-.079.341.077.644.195.84.04.065.117.262.117.302l-.104.458a2.46 2.46 0 0 0-.104.761l.156.407.118.237s-.313 1.127-.561 1.56c-.222.407-.522.761-.822 1.142-.183.222-.379.458-.562.708-.143.223-.522.748-.782.748h-.079c-.743 0-.992-.04-.992-.04-.417-.197-.704-.538-1.043-.983l-.027-.027c-.195-.262-.156-1.102-.143-1.482 0-.145.026-.315.039-.499.065-.485.079-.76.026-.957v-.04c-.078-.197-.182-.314-.261-.406-.065-.065-.065-.065-.065-.144 0-.105.221-.998.221-.998.027 0 .223-.262.235-.275l.105-.315c.065-.223-.117-.407-.274-.616a2.029 2.029 0 0 1-.183-.302l-.039-.157v-.485c0-.368.065-.487.144-.657.104-.183.222-.407.222-.826 0-.315-.066-.866-.235-1.102-.079-.118-.158-.144-.262-.236-.522-.577-1.134-.945-1.84-.945-.117 0-.234.04-.457.08-.077.025-.169.196-.22.196l-.458-.224c-.274-.078-.418-.117-.535-.117-.183 0-1.292.406-1.292 1.05 0 .222-.026.537-.065.786-.026.197-.026.302-.026.368 0 .262.143.538.418.826.274.302.795.643 1.173.643a.64.64 0 0 0 .406-.145c.104-.065.364.538.364 1.784l.04.644c.026.458.066.839.066.839-.027.026-.04.144-.066.157a.925.925 0 0 0-.065.368v2.36c0 .264.156.408.156.565l.104.302c.04.183.118.46.118.46 0 .025 1.397 3.291 2.82 3.291.116 0 .273-.026.403-.04.065-.025.157-.183.196-.183 0 0 .144.197.222.223.183.066.34.118.483.118.156 0 .313-.065.496-.118.078-.026.183-.079.222-.079l.26.067c.158.04.301.078.418.078.183 0 .275 0 .418-.066l.065-.065c.156-.118.366-.236.561-.368.235-.157.575-.42.575-.42.143-.104.443-.236.535-.366.064-.08.104-.04.104-.04s.078.105.104.197c.04.105.066.184.105.236l.065.105.079.04c.117.065.483.117.6.196.495.262.652.314.757.314a.792.792 0 0 0 .312-.065l.405.144c.365.12.496.184.614.184.34 0 .417-.17.756-.59l.222-.026s.079-.158.144-.158a.552.552 0 0 0 .457-.223c.117-.17.209-.38.209-.682zm-29.172-1.5a1.782 1.782 0 0 1-.06-.036c-.196-.106-.262.052-.431-.04-.222-.105-.262-.038-.379-.013-.287.053-.13.105-.313.21-.209.119-.235.42-.235.42s-.391.237-.417-.184l-.118-.314c-.065-.224-.3-.42-.183-.499l.235-.446c.027-.157.118-.275.079-.446-.079-.144-.118-.316-.144-.38 0 0-.091-.328-.052-.393.104-.157.196-.157.196-.317-.04-.314-.079-.536.04-.865.103-.222-.105-.602-.105-.602.065-.368.221-.316.196-.907-.027-.235.117-.46-.066-.668 0 0-.105-.118-.065-.158l.13-.249a.885.885 0 0 0-.053-.539l-.117-.157.013-.235c.079-.222.027-.406.027-.577-.052-.446-.587-1.43-.587-1.43-.144-.157-.196-.354-.34-.46-.105-.051-.234-.064-.248-.104-.039-.012-.052-.172-.052-.21a.844.844 0 0 0-.444-.406s-.3-.17-.443-.184a1.033 1.033 0 0 1-.301-.08l-.144-.118c-.077-.143-.22-.197-.404-.235 0 0-.222-.04-.418-.026-.117 0-.235-.04-.339-.014-.04.027-.065.027-.078.027l-.248-.093c-.209-.116-.3-.131-.457-.116-.261 0-.353.196-.522.34-.039.04-.391.04-.443.026-.104-.013-.157-.04-.301-.025-.144 0-.248.025-.56.169-.118.04-.366.04-.366.04s-.183.026-.26.012a3.36 3.36 0 0 0-.55-.091c-.22 0-.3.288-.626.446-.078.066-.222.04-.326.105-.04.026-.117.25-.156.276-.34.25-.418.59-.705.55-.053 0-.3.158-.34.196a2.328 2.328 0 0 0-.391.474c-.156.208-.26.563-.26.734 0 .027-.014.144-.014.184 0 .564.013 1.246.195 1.666.131.341.836.866 1.2.852.106 0 .132-.092.236-.092.105 0 .183-.078.235.053 0 0 .104.04.157.053.157.039.3.078.417.064.314-.012.849-.642.875-.864.052-.328.104-.866.09-1.023a.662.662 0 0 0-.208-.473c-.078-.093-.117-.093-.13-.236 0-.184.157-.262.17-.289l.534-.184c.223 0 .693.34.849.159 0 0 .143-.04.196 0 .22.157.143.26.404.249.143 0 .43-.092.653-.224l.235.013c.143.078.052.158.208.197.156.039.379.065.535.092l.3-.066c.418.184.405.775.444 1.103 0 .157-.143.904-.183 1.258l-.222.106c-.143.157-.391-.092-.483-.092-.195 0-.26.014-.782.419l-.275.106c-.195.078-.22.09-.326.235-.038.026-.273-.145-.273-.145-.275-.143-.535.225-.693.225-.535 0-.522-.172-.822.196 0 0-.652.039-.73.065-.262.105-.314-.026-.653.132-.326.157-.26.393-.34.433.027 0-.208-.092-.208-.092-.026 0-.118.027-.183.027-.195.025-.561.378-.561.378C.652 28.526 0 30.151 0 30.441c0 .157.066.328.13.485.066.118-.078.222-.051.328 0 .118.025.275.025.419.027.183.027.34.04.486 0 0 .195.642.482.8l.183.105c.066.04.262.184.262.184.182.341.417.617.652.72.195.08.339-.012.535.014.182.039.417.263.417.263.066.039.157.105.235.157.366.236.575.367.783.367.222 0 .379-.104.561-.196.027-.026.418-.145.444-.145l1.423-.066c.039 0 .118 0 .222.028.104.025.221.038.313.038.274 0 .457-.105.561-.144l.183-.145c.078-.104.235-.235.3-.261l.183-.041c.195-.038.456-.078.653-.274v.026c.156-.145.26-.302.3-.38 0 0 .339.078.495.183l.196.236c.078.118.183.276.313.381.379.236.614.367.914.367.117 0 .613-.026.678-.039l.3-.079c.183.08.196.144.314.144.171 0 .399-.182.523-.282.12-.016.257-.043.364-.086.078-.039.235-.078.274-.105l.274.119c.078.157.26.222.365.222.118-.026.157.027.3-.039.066-.026.314-.105.38-.04.3.158.456.263.639.263.117 0 .235-.065.482-.145.079-.04.235-.104.275-.117 0 0 .117.065.339.078.704.079.939.106 1.018.106.117 0 .235-.027.417-.08.04-.026.196-.065.196-.065s.456.078.64.105c.417.105.365.144.443.144.105 0 .235-.066.535-.183.117-.04.535-.105.535-.105.105.04.222.078.365.078.183 0 .34-.105.484-.262.025-.027.065-.065.078-.105l.143.066c.079.157.274.223.379.223.117-.027.274.026.418-.04 0 0 .182-.104.235-.04.3.158.456.264.639.264.117 0 .235-.067.482-.145.08-.04.275-.105.314-.118 0 0 .456.065.679.079.705.078.939.105 1.017.105.118 0 .235-.027.418-.08.04-.025.196-.065.196-.065s.456.08.639.105c.418.105.366.144.443.144.105 0 .235-.065.536-.183.117-.04.535-.105.535-.105.104.04.221.079.365.079.183 0 .34-.105.484-.263.312-.262.547-.813.547-1.075 0-.446-.117-.761-.366-.998-.364-.366-.416-.236-.704-.38l-.64.027c-.156 0-.574.079-.86.157 0 0-.236.104-.314.144-.039.027-.3-.065-.3-.065-.222-.08-.196-.145-.313-.145h-.366l-.273-.485c-.118-.485.038-.748.025-.905l.079-.604c.117-.406.183-.577.183-.708 0-.236-.079-.407-.157-.485-.039-.119-.105-.223.039-.827.04-.183-.026-.538-.026-.538 0-.04-.066-.222-.078-.262a2.1 2.1 0 0 1-.157-.407l.117-.314c.105-.302.183-.46.183-.617 0-.223-.078-.368-.183-.525-.077-.197-.183-.446-.183-.983-.025-.105.027-.748 0-1.326l.027-.839s.065-.144.117-.223c.066-.144.144-.302.183-.498a2.19 2.19 0 0 0 0-.657c-.026-.104-.026-.275-.026-.275.026-.157.105-.367.196-.538.183-.525.26-.708.26-.866 0-.157-.104-.34-.3-.616-.039-.079-.104-.197-.117-.236 0 0-.078-.42-.144-.683a7.499 7.499 0 0 1-.234-1.102l-.026-.117-.08-.08c-.064-.038-.403-.406-.717-.406-.235.026-.3 0-.495.184h-.261s-.105-.184-.366-.184c-.195 0-.457-.04-.535.04l-.482.04c-.34-.198-.366-.224-.536-.224-.117 0-.196.04-.274.065l-.339-.157c-.3-.184-.444-.236-.574-.236-.822.027-1.423 1.483-1.396 2.125 0 .945.56 1.246.99 1.51.067 0 .34-.04.392 0 .04.025.092.261.13.326.144.158.275.106.406.119 0 0 .013-.052.156-.092 0 0 .379.236.575.236.195 0 .22-.157.378-.276l.117.237c.04.144.066.301.118.46 0 0 .156.405.3.602l.104.263c-.065.118-.248.235-.248.393 0 .105.131.262.157.367.026.119.026.303.026.38l-.104.264a.774.774 0 0 0-.157.458c0 .315.195.525.313.656.105.118.144.158.144.262 0 0-.066.184-.104.276-.04.144-.105.276-.105.42-.078.341-.026.708.039.958 0 .065.104.485.104.525l-.038.918c0 .183-.027.34-.027.498-.025.157-.04.315-.04.498-.038.276-.077.564-.077.84l.26.25c.04.078-.156.327-.156.367 0 .065.065.197 0 .301-.039.118-.078.262-.104.42 0 .236-.026.486-.04.708-.026.158-.038.315-.038.42 0 .105-.144.224-.144.315-.027.145-.04.407-.104.459l-.34-.118c-.339-.118-.417-.04-.534-.04-.066 0-.262-.078-.366-.065-.274.04-.483.105-.562.105 0 0-.077-.026-.156-.066-.235-.04-.34-.04-.457-.04-.378 0-.652.198-.835.46-.04 0-.078 0-.117.027 0 0-.235.105-.313.144-.04.026-.3-.066-.3-.066-.223-.078-.196-.144-.314-.144h-.365l-.157-.486c-.144-.485-.078-.747-.104-.905l.078-.603c.117-.407.183-.577.183-.708a.79.79 0 0 0-.143-.486c-.066-.117-.118-.223.025-.826.04-.184-.025-.538-.025-.538 0-.04-.066-.223-.079-.263a2.095 2.095 0 0 1-.156-.406l.143-.315c.078-.302.157-.459.157-.617 0-.222-.08-.366-.157-.525-.105-.196-.195-.445-.195-.983 0-.105.025-.747.025-1.324v-.84s.065-.145.118-.224c.065-.144.144-.301.182-.498a2.19 2.19 0 0 0 0-.656c-.026-.105-.026-.275-.026-.275.026-.158.105-.368.196-.538.183-.525.26-.708.26-.866 0-.158-.104-.341-.273-.616-.066-.08-.118-.197-.143-.236 0 0-.079-.42-.144-.682a7.534 7.534 0 0 1-.235-1.102l-.026-.12-.078-.077c-.066-.04-.405-.407-.718-.407-.235.026-.3 0-.496.183h-.26s-.105-.183-.367-.183c-.195 0-.456-.04-.535.04l-.482.039c-.34-.197-.496-.224-.679-.224-.118 0-.222.04-.3.067l-.365-.159c-.314-.182-.458-.236-.601-.236-.874.027-1.775 1.483-1.762 2.126.026.944.6 1.246 1.058 1.508.065 0 .352.132.417.17.04.027.04.106.078.171.144.158.26.171.522.171.222 0 .313-.197.457-.236 0 0 .353.314.574.314.196 0 .34-.157.496-.275l.117.236c.04.144.066.302.118.46 0 0 .157.406.3.602l.105.263c-.065.118-.235.237-.235.394 0 .104.118.263.143.367.027.118.04.302.027.38l-.105.263a.775.775 0 0 0-.157.46c.027.314.196.523.314.655.104.118.143.158.143.263 0 0-.066.182-.104.274-.04.145-.079.276-.105.42-.078.341-.026.709.066.958 0 .065.077.485.077.525l-.038.918c0 .184-.026.341-.026.498a3.04 3.04 0 0 0-.04.5c-.04.274-.077.563-.077.838l.22.25c.04.079-.129.328-.129.367 0 .065.065.197 0 .302-.04.118-.079.263-.079.42-.026.236-.039.485-.065.708-.026.157-.039.315-.026.42-.027.105-.04.223-.04.315-.025.144-.156.406-.22.458l-.366-.117c-.275-.118-.34-.04-.444-.04-.066 0-.222-.078-.3-.065-.222.04-.183.105-.222.105 0 0-.079-.027-.157-.066a2.395 2.395 0 0 0-.174-.03zm51.186-7.88c.327.157.366.59.366.905 0 .314-.183.459-.34.761-.156.301-.444.17-.6.249-.561.236-1.2.354-1.448.354-.158 0-.914-.314-1.084-.314-.195 0-.456.157-.652.157-.157 0-.496-.236-.679-.236-.196 0-.704.144-.9.144-.457 0-.561-.157-.561-.485 0-.329.3-1.063.861-1.22.157-.066.496.065.705-.106.078-.105.144-.498.365-.603.496-.315 1.579-.616 1.762-.616.222 0 .522.236.743.406.158.04.366-.026.497.04.274.144.691.432.965.564zM8.287 29.129l-.104.984c0 .196-.483.301-.705.498-.157.08-.522.341-.522.341-.105.066-.274.183-.744.984-.026.066-.156.158-.196.158-.026 0-.118-.026-.195-.04a4.6 4.6 0 0 0-.562-.04c-.117 0-.339.067-.678.159-.104.024-.17.157-.235.183-.026-.04-.352-.105-.391-.131-.3-.198-.157-.198-.405-.198l-.405-.09c-.222-.105-.26-.329-.47-.592-.064-.065.013-.287-.064-.342-.105-.077.077-.196.077-.34 0 0-.117-.21.144-.471.183-.264.222-.382.222-.382l.314.014s.195-.172.26-.197l.51-.183c.143-.106.22-.184.3-.236.039 0 .143-.04.365-.04.156 0 .313-.183.496-.158 0 0 .561.066.796.066.234 0 .94-.183 1.553-.42.065-.038.195-.065.235-.078.065.027.117-.04.117-.026.105.026.157-.026.183.039 0 0 .078.235.104.538z" fill="#000" fill-rule="nonzero"/></g></svg>