<?xml version="1.0" encoding="UTF-8"?>
<svg width="256px" height="98px" viewBox="0 0 256 98" version="1.1" xmlns="http://www.w3.org/2000/svg" xmlns:xlink="http://www.w3.org/1999/xlink">
    <!-- Generator: Sketch 51.3 (57544) - http://www.bohemiancoding.com/sketch -->
    <title>bi-logotype</title>
    <desc>Created with Sketch.</desc>
    <defs></defs>
    <g id="Page-1" stroke="none" stroke-width="1" fill="none" fill-rule="evenodd">
        <g id="bi-logotype" transform="translate(0.092448, 0.985368)">
            <path d="M5.69580165,88.0778965 C6.33527514,88.0778965 6.95480405,88.0026888 7.55438836,87.8526888 C8.15397267,87.7031044 8.68333539,87.4633537 9.14330756,87.1334369 C9.60286421,86.8039356 9.96768404,86.3988111 10.2377671,85.9197254 C10.5074346,85.4393931 10.6420606,84.8697257 10.6420606,84.2103076 C10.6420606,83.3913328 10.4771022,82.7319147 10.1476009,82.2320533 C9.81768409,81.7326075 9.38762881,81.3428569 8.8586816,81.0623861 C8.32848785,80.7827463 7.7343052,80.5928571 7.07488711,80.4927187 C6.41505351,80.3934112 5.75605094,80.3435497 5.09621734,80.3435497 L2.48804636,80.3435497 L2.48804636,87.8680628 C2.62765851,87.9079519 2.82793546,87.9378688 3.08763067,87.9578134 C3.34732588,87.977758 3.62696569,87.9985336 3.9269656,88.0172317 C4.22655,88.0380073 4.53652221,88.0525502 4.85646671,88.0625225 C5.17599571,88.0733259 5.45605102,88.0778965 5.69580165,88.0778965 Z M4.04704867,78.2447969 C4.38652225,78.2447969 4.79621742,78.2348246 5.27613418,78.21488 C5.75605094,78.1949354 6.15494279,78.165434 6.4753028,78.1247138 C6.95480405,77.9651571 7.4043884,77.7698663 7.82447138,77.5405035 C8.24413885,77.3107251 8.61893098,77.0410576 8.94843227,76.7306699 C9.27834907,76.4215287 9.53762877,76.061695 9.72793342,75.6515844 C9.91740705,75.2423047 10.0129749,74.797291 10.0129749,74.3173742 C10.0129749,73.6583717 9.88749016,73.113635 9.63818276,72.6831642 C9.38762881,72.2543554 9.05355689,71.9094802 8.63388942,71.649785 C8.21422196,71.3900898 7.7343052,71.2051868 7.19455467,71.0946605 C6.65521965,70.9849652 6.1050813,70.9297021 5.5462172,70.9297021 C4.8863836,70.9297021 4.28139763,70.9454916 3.73209031,70.9749929 C3.18236748,71.0049098 2.76768617,71.0502007 2.48804636,71.1100345 L2.48804636,78.2447969 L4.04704867,78.2447969 Z M12.6506472,73.8079561 C12.6506472,74.3074019 12.5704534,74.8172356 12.4108966,75.336626 C12.2505089,75.8564319 12.0111737,76.3413349 11.6916448,76.7905037 C11.3717003,77.240088 10.9615896,77.6352403 10.4621437,77.9755449 C9.9626979,78.3150185 9.37267037,78.5747137 8.69330769,78.7550461 L8.69330769,78.8742981 C9.292892,78.9744366 9.86754557,79.1443811 10.4172684,79.3841317 C10.9669912,79.6234668 11.4514786,79.9537992 11.8711461,80.3734666 C12.2912291,80.7931341 12.6307027,81.3021367 12.8908134,81.901721 C13.1500931,82.5013053 13.280564,83.2110004 13.280564,84.0303908 C13.280564,85.1098918 13.0553563,86.0439636 12.6057719,86.8338525 C12.1561876,87.6229105 11.5665755,88.2677856 10.8373514,88.7672315 C10.1072962,89.2670928 9.27294741,89.6360678 8.33388951,89.8766494 C7.39400059,90.1159845 6.4349981,90.2356521 5.45605102,90.2356521 L4.2568824,90.2356521 C3.79691024,90.2356521 3.31699348,90.2211092 2.81796316,90.1911923 C2.31810181,90.1616909 1.81824046,90.1209707 1.31879463,90.0711092 C0.818933277,90.0212477 0.37973673,89.9464555 -4.15512343e-05,89.8459015 L-4.15512343e-05,69.1911985 C0.739154907,69.0715309 1.59843443,68.9713924 2.57821254,68.8916141 C3.55715962,68.8118357 4.62627288,68.771531 5.78555231,68.771531 C6.56505347,68.771531 7.35951307,68.8363509 8.16893111,68.9668218 C8.97834916,69.0964616 9.71297498,69.3466001 10.3723931,69.715575 C11.0318112,70.0857965 11.5765478,70.6002008 12.0066031,71.2596189 C12.4358274,71.919037 12.6506472,72.7691752 12.6506472,73.8079561 Z" id="Fill-1" fill="#1D1A1B"></path>
            <path d="M21.854121,76.7454206 C20.6744814,76.7454206 19.7300219,77.0553928 19.0211578,77.6749217 C18.3114627,78.2948661 17.8868091,79.3540071 17.7467815,80.8527601 L25.1815438,80.8527601 C25.1815438,79.3340625 24.8919317,78.2699354 24.312292,77.6603788 C23.7326523,77.0508222 22.9132619,76.7454206 21.854121,76.7454206 Z M27.0106292,88.7969406 C26.4110449,89.2768574 25.6560589,89.6566356 24.7469179,89.9362754 C23.8373614,90.2159153 22.8733728,90.3559429 21.854121,90.3559429 C20.7147861,90.3559429 19.7254513,90.1710399 18.8861163,89.8016494 C18.0467814,89.4314279 17.3570309,88.9020652 16.8176959,88.2127302 C16.2779453,87.5225642 15.877807,86.6990188 15.6185273,85.7396008 C15.358832,84.7801828 15.2287767,83.7010972 15.2287767,82.5015131 C15.2287767,79.9436191 15.7984441,77.9952817 16.9373634,76.6556699 C18.0771138,75.3173047 19.7050911,74.6474988 21.8237886,74.6474988 C22.5031513,74.6474988 23.1829295,74.722291 23.8622921,74.8718755 C24.5416548,75.0218754 25.1516269,75.3065014 25.690962,75.7265843 C26.231128,76.1462518 26.669909,76.74085 27.0106292,77.5103788 C27.3501027,78.2799077 27.5200473,79.2937578 27.5200473,80.5531757 C27.5200473,81.2125938 27.459798,81.9422335 27.3401305,82.7416792 L17.7168646,82.7416792 C17.7168646,83.6213189 17.8070308,84.40082 17.9869476,85.0797672 C18.1664489,85.7591299 18.4465043,86.3341989 18.8262825,86.8037279 C19.2056453,87.2732568 19.700105,87.6330905 20.3100771,87.8828134 C20.9196337,88.1329519 21.6638163,88.2571901 22.5438715,88.2571901 C23.2224031,88.2571901 23.9025968,88.1375225 24.5819595,87.8981874 C25.2613222,87.6576058 25.7707403,87.3779659 26.1110449,87.0580214 L27.0106292,88.7969406 Z" id="Fill-4" fill="#1D1A1B"></path>
            <path d="M35.3144356,88.1375225 C35.8737152,88.1375225 36.3735765,88.0623148 36.8131886,87.9127303 C37.2528007,87.7627304 37.6325789,87.5736723 37.9525234,87.3430629 C38.2720524,87.1137001 38.5371493,86.858991 38.746983,86.5785202 C38.9568168,86.2992959 39.1113874,86.0292129 39.2115258,85.7695177 L39.2115258,83.2810142 C38.9314705,83.2619007 38.6468446,83.2465267 38.3572325,83.2361389 C38.0672049,83.2265821 37.7821634,83.2211805 37.5029391,83.2211805 C36.8829947,83.2211805 36.2784242,83.2560835 35.6892277,83.3258896 C35.0992002,83.3965267 34.5798098,83.525751 34.1302254,83.7156402 C33.680641,83.9059448 33.3208074,84.1652245 33.0511398,84.4951413 C32.7810568,84.8250581 32.6464308,85.2401549 32.6464308,85.7396008 C32.6464308,86.4393236 32.8961537,87.0135616 33.3955996,87.463146 C33.8950454,87.9127303 34.5349344,88.1375225 35.3144356,88.1375225 Z M31.0575116,76.1159194 C31.8170682,75.6567783 32.7012785,75.3173047 33.7105579,75.0966676 C34.7194219,74.8772771 35.7739922,74.7667508 36.8734379,74.7667508 C37.9122187,74.7667508 38.746983,74.9067785 39.3764842,75.1872493 C40.0059854,75.4668891 40.4859022,75.8312935 40.8154035,76.2812933 C41.1453203,76.7308777 41.3647108,77.2253374 41.4752371,77.7655034 C41.5845168,78.3044229 41.6401955,78.8441734 41.6401955,79.3843395 C41.6401955,80.5830926 41.6098631,81.7523443 41.5500293,82.8912637 C41.48978,84.030183 41.4602786,85.1100996 41.4602786,86.1293514 C41.4602786,86.8685478 41.48978,87.5678551 41.5500293,88.2272732 C41.6098631,88.8875223 41.7195583,89.4966634 41.8795306,90.0563585 L40.1106946,90.0563585 L39.4816089,87.9576057 L39.3311934,87.9576057 C39.1512766,88.237661 38.9268999,88.5118991 38.6572324,88.7823977 C38.3875649,89.0516497 38.0622187,89.2914003 37.6828559,89.501234 C37.3026621,89.7110678 36.8630501,89.886414 36.3636042,90.0260261 C35.8637429,90.1660538 35.2940755,90.2358598 34.6550175,90.2358598 C34.0151285,90.2358598 33.4205303,90.1357214 32.871223,89.9362754 C32.3215002,89.736414 31.8465696,89.4517881 31.4472622,89.0815666 C31.0471238,88.7125916 30.732581,88.2675779 30.5028026,87.7481874 C30.2726088,87.2283815 30.1583429,86.6387695 30.1583429,85.9793514 C30.1583429,85.0997118 30.3382598,84.365917 30.6976779,83.7754739 C31.0575116,83.1866929 31.5619436,82.716333 32.2118049,82.3664716 C32.8608352,82.0174412 33.6403364,81.7668873 34.5498929,81.6173028 C35.4594494,81.4673029 36.4633272,81.3925106 37.5627729,81.3925106 L38.3875649,81.3925106 C38.6572324,81.3925106 38.9314705,81.4124552 39.2115258,81.4523444 C39.2717751,80.8527601 39.301692,80.3130096 39.301692,79.8339239 C39.301692,78.7344782 39.0814705,77.9653648 38.6418584,77.5249218 C38.2022464,77.0861407 37.4023851,76.8655037 36.2435212,76.8655037 C35.9036321,76.8655037 35.5392278,76.8916809 35.1494772,76.942789 C34.7597266,76.994728 34.3595882,77.0661961 33.9503086,77.1592709 C33.5401979,77.2515146 33.1508628,77.3641185 32.7810568,77.4979135 C32.4112508,77.6321239 32.0867357,77.7804619 31.8066804,77.9445892 L31.0575116,76.1159194 Z" id="Fill-6" fill="#1D1A1B"></path>
            <path d="M48.3243348,75.0070832 L48.3243348,83.550848 C48.3243348,84.3303491 48.3696256,85.0151135 48.4589608,85.6047255 C48.549127,86.1943375 48.7036976,86.683811 48.9239191,87.0731461 C49.1437251,87.4633122 49.4433095,87.7579104 49.8230878,87.9577719 C50.2028661,88.1572178 50.6823673,88.2573563 51.2624226,88.2573563 C51.8017576,88.2573563 52.2816743,88.1730073 52.7013418,88.0026472 C53.1205938,87.8327027 53.4953859,87.5979382 53.8257182,87.2983538 C54.1552195,86.9983539 54.4444161,86.6534786 54.69497,86.2641436 C54.9442774,85.8739775 55.149125,85.4597117 55.3090973,85.0196841 L55.3090973,75.0070832 L57.70785,75.0070832 L57.70785,85.7393515 C57.70785,86.4586033 57.7323653,87.203617 57.7826423,87.9731458 C57.8320882,88.7426747 57.9172683,89.4170512 58.0373513,89.9958599 L56.3885983,89.9958599 L55.789014,87.6278551 L55.6390141,87.6278551 C55.1790419,88.4073562 54.5599285,89.0572175 53.7804274,89.5761924 C53.0009262,90.0959984 52.0115913,90.3556936 50.8124227,90.3556936 C50.012977,90.3556936 49.3086835,90.2609568 48.6991269,90.0710676 C48.0895703,89.8811785 47.5797367,89.5466911 47.1700415,89.0671898 C46.7603463,88.5872731 46.4507896,87.9423979 46.2409559,87.1333954 C46.0311222,86.3235618 45.9264131,85.2997394 45.9264131,84.0602661 L45.9264131,75.0070832 L48.3243348,75.0070832 Z" id="Fill-8" fill="#1D1A1B"></path>
            <path d="M60.3453977,75.0070832 L62.6834857,75.0070832 L62.6834857,72.0390785 L65.0818229,71.349328 L65.0818229,75.0070832 L69.15883,75.0070832 L69.15883,77.1054205 L65.0818229,77.1054205 L65.0818229,85.4094347 C65.0818229,86.4490466 65.2118783,87.1836724 65.4715735,87.6133121 C65.7312687,88.0425364 66.1712963,88.2573563 66.7908252,88.2573563 C67.3102156,88.2573563 67.7502432,88.2029242 68.1100769,88.0923979 C68.4694951,87.9831181 68.8692179,87.8376888 69.3092455,87.6573564 L69.8485805,89.4868573 C69.3092455,89.7465525 68.719218,89.9563862 68.0797445,90.115943 C67.4398555,90.2754997 66.7505205,90.3556936 66.011324,90.3556936 C64.7922108,90.3556936 63.9325158,90.0112339 63.43307,89.3214834 C62.9336241,88.6321484 62.6834857,87.4786861 62.6834857,85.859019 L62.6834857,77.1054205 L60.3453977,77.1054205 L60.3453977,75.0070832 Z" id="Fill-10" fill="#1D1A1B"></path>
            <path d="M76.9064316,84.7200997 L77.7490907,87.5979382 L77.8995061,87.5979382 L78.5610018,84.6897673 L81.479976,75.0070832 L83.8783132,75.0070832 L79.4414724,88.468021 C79.1015833,89.4469681 78.7670959,90.3955828 78.4371791,91.3155271 C78.1076778,92.2342249 77.7424425,93.0544463 77.3427196,93.7732826 C76.9429967,94.4933655 76.4934124,95.0671881 75.9939665,95.4972433 C75.4941052,95.9264676 74.914881,96.141703 74.2550474,96.141703 C73.5357955,96.141703 72.945768,96.0415645 72.4862113,95.8425341 L72.9062943,93.7732826 C73.165574,93.8734211 73.416128,93.9232826 73.6554631,93.9232826 C74.2147427,93.9232826 74.7544932,93.6282688 75.2742992,93.0390723 C75.7936896,92.4494603 76.2233293,91.4356102 76.5632184,89.9958599 L70.537874,75.0070832 L73.2960449,75.0070832 L76.9064316,84.7200997 Z" id="Fill-12" fill="#1D1A1B"></path>
            <polygon id="Fill-15" fill="#1D1A1B" points="88.568118 89.7864001 92.675042 89.7864001 92.675042 68.8013648 88.568118 68.8013648"></polygon>
            <path d="M105.77544,89.7861924 L105.77544,81.2723445 C105.77544,80.0540623 105.600094,79.1744227 105.250648,78.6342566 C104.900786,78.0945061 104.306604,77.8252541 103.466853,77.8252541 C102.727657,77.8252541 102.103142,78.040074 101.593724,78.4701292 C101.083474,78.8993535 100.71907,79.4337024 100.499264,80.0731759 L100.499264,89.7861924 L96.6017582,89.7861924 L96.6017582,74.7974156 L99.689846,74.7974156 L100.13943,76.7756699 L100.259513,76.7756699 C100.71907,76.1366119 101.328211,75.5769168 102.088183,75.0965845 C102.847324,74.6174988 103.826687,74.3777482 105.025855,74.3777482 C105.765467,74.3777482 106.42447,74.4778866 107.004525,74.6773326 C107.584165,74.877194 108.073639,75.2071108 108.473361,75.6666675 C108.873084,76.1266396 109.173084,76.7507392 109.372946,77.5402126 C109.572392,78.3296861 109.67253,79.3040625 109.67253,80.4633419 L109.67253,89.7861924 L105.77544,89.7861924 Z" id="Fill-17" fill="#1D1A1B"></path>
            <path d="M119.056004,86.9088525 C119.815145,86.9088525 120.414729,86.724365 120.854757,86.353728 C121.294369,85.9843376 121.604341,85.4499887 121.783842,84.7502659 L121.783842,78.3950046 C121.504202,78.1747831 121.19423,78.0102402 120.854757,77.9001294 C120.514868,77.7908497 120.075255,77.7347555 119.535505,77.7347555 C118.436059,77.7347555 117.611683,78.1053925 117.062375,78.8441734 C116.512237,79.5837854 116.237999,80.8527601 116.237999,82.651513 C116.237999,83.9308756 116.462791,84.9600996 116.912376,85.7396008 C117.362375,86.5191019 118.076641,86.9088525 119.056004,86.9088525 Z M125.681348,84.5105153 C125.681348,85.3498502 125.690905,86.1891851 125.711265,87.0281046 C125.730794,87.8682705 125.820545,88.7969406 125.980932,89.8161924 L123.19326,89.8161924 L122.653094,87.8682705 L122.533427,87.8682705 C122.133288,88.5679933 121.55905,89.1322591 120.809881,89.5618988 C120.060297,89.9915386 119.176087,90.205943 118.156419,90.205943 C116.277473,90.205943 114.818609,89.5868296 113.779828,88.3473562 C112.740216,87.1082984 112.220826,85.1695178 112.220826,82.5318455 C112.220826,79.9739515 112.80005,77.9848939 113.959745,76.5659193 C115.118193,75.1473601 116.817223,74.4376651 119.056004,74.4376651 C119.675117,74.4376651 120.184535,74.4725681 120.584674,74.5423742 C120.984396,74.6125957 121.383704,74.7281082 121.783842,74.8868339 L121.783842,68.8012401 L125.681348,68.8012401 L125.681348,84.5105153 Z" id="Fill-18" fill="#1D1A1B"></path>
            <path d="M135.513367,77.4952957 C134.494116,77.4952957 133.739545,77.8002818 133.250072,78.4094229 C132.760182,79.019395 132.465584,79.8337992 132.365446,80.8526355 L137.941621,80.8526355 C138.0214,79.7735499 137.856441,78.9446028 137.446746,78.3649631 C137.037051,77.7853233 136.392591,77.4952957 135.513367,77.4952957 Z M141.089127,88.4976471 C140.489959,88.9771483 139.675139,89.3818573 138.64633,89.7109431 C137.616691,90.0412754 136.522231,90.2058183 135.363367,90.2058183 C132.945085,90.2058183 131.176249,89.5015249 130.057275,88.0925225 C128.937884,86.6835202 128.378605,84.7501412 128.378605,82.2915547 C128.378605,79.6534668 129.008106,77.6752126 130.267108,76.3563764 C131.526526,75.0371247 133.295362,74.3777066 135.573617,74.3777066 C136.332758,74.3777066 137.07237,74.4778451 137.791621,74.677291 C138.511289,74.8771525 139.150347,75.2070693 139.710457,75.6666259 C140.269737,76.1265981 140.719321,76.745296 141.059626,77.5247971 C141.3991,78.3042983 141.569044,79.2745196 141.569044,80.432968 C141.569044,80.8526355 141.543698,81.3022198 141.494252,81.7821366 C141.443975,82.2616378 141.369183,82.7614992 141.26946,83.2808896 L132.275695,83.2808896 C132.335944,84.5403075 132.66046,85.4897532 133.250072,86.1292267 C133.839268,86.7691157 134.794115,87.0886447 136.112952,87.0886447 C136.932342,87.0886447 137.666552,86.9635755 138.316414,86.7138526 C138.965859,86.4637141 139.460319,86.2090051 139.800208,85.9493099 L141.089127,88.4976471 Z" id="Fill-19" fill="#1D1A1B"></path>
            <path d="M151.012518,77.6750464 C150.252546,77.6750464 149.658363,77.8657665 149.228723,78.2447138 C148.798668,78.6244921 148.464181,79.1941595 148.224846,79.9537161 L148.224846,86.1888943 C148.50407,86.4095313 148.80864,86.583631 149.138973,86.7136864 C149.468474,86.8433262 149.9031,86.9089772 150.44285,86.9089772 C151.561825,86.9089772 152.40116,86.5142404 152.960855,85.7243515 C153.520135,84.9357091 153.80019,83.6305848 153.80019,81.8123028 C153.80019,80.4926356 153.580384,79.4737993 153.140772,78.7549629 C152.700744,78.0348801 151.991465,77.6750464 151.012518,77.6750464 Z M144.32734,74.7972079 L147.175261,74.7972079 L147.624846,76.5959608 L147.744929,76.5959608 C148.263904,75.8364043 148.878862,75.2771246 149.588142,74.9168754 C150.297837,74.5570417 151.162102,74.3775404 152.181354,74.3775404 C154.05947,74.3775404 155.468888,74.9725541 156.408361,76.1609194 C157.347835,77.3505312 157.817363,79.2639656 157.817363,81.9016379 C157.817363,83.1814159 157.667779,84.3348782 157.367779,85.3645178 C157.068195,86.3941574 156.622765,87.2683953 156.033569,87.9876472 C155.444372,88.7073146 154.724705,89.2570374 153.875398,89.6359847 C153.025675,90.015763 152.051299,90.2056521 150.952269,90.2056521 C150.33274,90.2056521 149.822906,90.1616078 149.423599,90.0710261 C149.02346,89.9812754 148.623737,89.8362616 148.224846,89.6359847 L148.224846,95.7818277 L144.32734,95.7818277 L144.32734,74.7972079 Z" id="Fill-20" fill="#1D1A1B"></path>
            <path d="M166.930588,77.4952957 C165.911336,77.4952957 165.156766,77.8002818 164.666877,78.4094229 C164.176988,79.019395 163.882805,79.8337992 163.782666,80.8526355 L169.358427,80.8526355 C169.438205,79.7735499 169.273662,78.9446028 168.863967,78.3649631 C168.454272,77.7853233 167.809397,77.4952957 166.930588,77.4952957 Z M172.506348,88.4976471 C171.906764,88.9771483 171.09236,89.3818573 170.063551,89.7109431 C169.033496,90.0412754 167.939452,90.2058183 166.780588,90.2058183 C164.362306,90.2058183 162.59347,89.5015249 161.474495,88.0925225 C160.355105,86.6835202 159.795826,84.7501412 159.795826,82.2915547 C159.795826,79.6534668 160.424911,77.6752126 161.684329,76.3563764 C162.943332,75.0371247 164.712168,74.3777066 166.990837,74.3777066 C167.749978,74.3777066 168.489175,74.4778451 169.208842,74.677291 C169.928094,74.8771525 170.567567,75.2070693 171.127263,75.6666259 C171.686542,76.1265981 172.136542,76.745296 172.476431,77.5247971 C172.81632,78.3042983 172.986265,79.2745196 172.986265,80.432968 C172.986265,80.8526355 172.960919,81.3022198 172.911057,81.7821366 C172.86078,82.2616378 172.786403,82.7614992 172.686265,83.2808896 L163.692916,83.2808896 C163.75275,84.5403075 164.077265,85.4897532 164.666877,86.1292267 C165.256489,86.7691157 166.211336,87.0886447 167.530172,87.0886447 C168.349563,87.0886447 169.083773,86.9635755 169.733634,86.7138526 C170.382664,86.4637141 170.87754,86.2090051 171.217429,85.9493099 L172.506348,88.4976471 Z" id="Fill-21" fill="#1D1A1B"></path>
            <path d="M184.917328,89.7861924 L184.917328,81.2723445 C184.917328,80.0540623 184.741982,79.1744227 184.392536,78.6342566 C184.042674,78.0945061 183.448492,77.8252541 182.608741,77.8252541 C181.869545,77.8252541 181.24503,78.040074 180.735612,78.4701292 C180.225362,78.8993535 179.860958,79.4337024 179.641152,80.0731759 L179.641152,89.7861924 L175.743646,89.7861924 L175.743646,74.7974156 L178.831734,74.7974156 L179.281318,76.7756699 L179.401401,76.7756699 C179.860958,76.1366119 180.470099,75.5769168 181.230071,75.0965845 C181.989212,74.6174988 182.968575,74.3777482 184.167744,74.3777482 C184.907356,74.3777482 185.566358,74.4778866 186.146413,74.6773326 C186.726053,74.877194 187.215527,75.2071108 187.615249,75.6666675 C188.014972,76.1266396 188.314972,76.7507392 188.514834,77.5402126 C188.71428,78.3296861 188.814418,79.3040625 188.814418,80.4633419 L188.814418,89.7861924 L184.917328,89.7861924 Z" id="Fill-22" fill="#1D1A1B"></path>
            <path d="M198.197892,86.9088525 C198.957033,86.9088525 199.556617,86.724365 199.996645,86.353728 C200.436257,85.9843376 200.746229,85.4499887 200.92573,84.7502659 L200.92573,78.3950046 C200.64609,78.1747831 200.336118,78.0102402 199.996645,77.9001294 C199.656756,77.7908497 199.217144,77.7347555 198.677393,77.7347555 C197.577947,77.7347555 196.753571,78.1053925 196.204264,78.8441734 C195.654125,79.5837854 195.379472,80.8527601 195.379472,82.651513 C195.379472,83.9308756 195.604679,84.9600996 196.054264,85.7396008 C196.504263,86.5191019 197.218529,86.9088525 198.197892,86.9088525 Z M204.823236,84.5105153 C204.823236,85.3498502 204.832793,86.1891851 204.853153,87.0281046 C204.872682,87.8682705 204.962433,88.7969406 205.12282,89.8161924 L202.335148,89.8161924 L201.794982,87.8682705 L201.675315,87.8682705 C201.275176,88.5679933 200.700938,89.1322591 199.951769,89.5618988 C199.202185,89.9915386 198.317559,90.205943 197.298308,90.205943 C195.419361,90.205943 193.960497,89.5868296 192.921716,88.3473562 C191.882104,87.1082984 191.362714,85.1695178 191.362714,82.5318455 C191.362714,79.9739515 191.941938,77.9848939 193.101633,76.5659193 C194.260081,75.1473601 195.959111,74.4376651 198.197892,74.4376651 C198.817005,74.4376651 199.326423,74.4725681 199.726562,74.5423742 C200.126285,74.6125957 200.525592,74.7281082 200.92573,74.8868339 L200.92573,68.8012401 L204.823236,68.8012401 L204.823236,84.5105153 Z" id="Fill-23" fill="#1D1A1B"></path>
            <path d="M214.655712,77.4952957 C213.636461,77.4952957 212.88189,77.8002818 212.392417,78.4094229 C211.902528,79.019395 211.607929,79.8337992 211.507791,80.8526355 L217.083967,80.8526355 C217.163329,79.7735499 216.998786,78.9446028 216.589091,78.3649631 C216.179396,77.7853233 215.534937,77.4952957 214.655712,77.4952957 Z M220.231473,88.4976471 C219.632304,88.9771483 218.817484,89.3818573 217.788675,89.7109431 C216.759036,90.0412754 215.664576,90.2058183 214.505712,90.2058183 C212.087431,90.2058183 210.318595,89.5015249 209.19962,88.0925225 C208.08023,86.6835202 207.52095,84.7501412 207.52095,82.2915547 C207.52095,79.6534668 208.150451,77.6752126 209.409454,76.3563764 C210.668456,75.0371247 212.437292,74.3777066 214.715962,74.3777066 C215.475103,74.3777066 216.214715,74.4778451 216.933967,74.677291 C217.653218,74.8771525 218.292692,75.2070693 218.852803,75.6666259 C219.412082,76.1265981 219.861667,76.745296 220.201971,77.5247971 C220.541445,78.3042983 220.711389,79.2745196 220.711389,80.432968 C220.711389,80.8526355 220.686043,81.3022198 220.636182,81.7821366 C220.585905,82.2616378 220.511528,82.7614992 220.411805,83.2808896 L211.417625,83.2808896 C211.47829,84.5403075 211.802805,85.4897532 212.392417,86.1292267 C212.981613,86.7691157 213.936461,87.0886447 215.255297,87.0886447 C216.074687,87.0886447 216.808897,86.9635755 217.458759,86.7138526 C218.108204,86.4637141 218.602664,86.2090051 218.942553,85.9493099 L220.231473,88.4976471 Z" id="Fill-24" fill="#1D1A1B"></path>
            <path d="M232.642618,89.7861924 L232.642618,81.2723445 C232.642618,80.0540623 232.467272,79.1744227 232.117826,78.6342566 C231.767965,78.0945061 231.173367,77.8252541 230.334032,77.8252541 C229.594835,77.8252541 228.97032,78.040074 228.460902,78.4701292 C227.950653,78.8993535 227.585833,79.4337024 227.366443,80.0731759 L227.366443,89.7861924 L223.468937,89.7861924 L223.468937,74.7974156 L226.557025,74.7974156 L227.006609,76.7756699 L227.126277,76.7756699 C227.585833,76.1366119 228.19539,75.5769168 228.955362,75.0965845 C229.714503,74.6174988 230.693866,74.3777482 231.893034,74.3777482 C232.632231,74.3777482 233.291649,74.4778866 233.871704,74.6773326 C234.451344,74.877194 234.940402,75.2071108 235.34054,75.6666675 C235.740263,76.1266396 236.039847,76.7507392 236.239709,77.5402126 C236.43957,78.3296861 236.539709,79.3040625 236.539709,80.4633419 L236.539709,89.7861924 L232.642618,89.7861924 Z" id="Fill-25" fill="#1D1A1B"></path>
            <path d="M238.248794,74.797291 L240.316799,74.797291 L240.316799,71.9788708 L244.214305,70.8702838 L244.214305,74.797291 L247.871644,74.797291 L247.871644,78.0947969 L244.214305,78.0947969 L244.214305,83.8504739 C244.214305,84.8900858 244.319014,85.6346839 244.528848,86.0838528 C244.739097,86.5334371 245.133418,86.7586448 245.713058,86.7586448 C246.112781,86.7586448 246.457656,86.7187556 246.747268,86.6385617 C247.03688,86.5587834 247.361811,86.4395313 247.721644,86.2791436 L248.411395,89.2770651 C247.871644,89.5367603 247.242143,89.7565664 246.522476,89.9364832 C245.803224,90.1159845 245.073169,90.2057352 244.334388,90.2057352 C242.955302,90.2057352 241.940621,89.8513032 241.291175,89.1411926 C240.64173,88.4323285 240.316799,87.2684784 240.316799,85.6492268 L240.316799,78.0947969 L238.248794,78.0947969 L238.248794,74.797291 Z" id="Fill-26" fill="#1D1A1B"></path>
            <path d="M123.507928,21.9168633 L123.507928,23.4260042 C130.741997,23.5307133 136.575375,29.5398528 136.575375,36.7543936 C136.575375,44.0329233 131.311249,50.1131154 124.01693,49.9327831 C124.01693,49.9327831 118.611115,49.763254 118.436184,44.3325077 C118.328566,40.9917885 118.472334,31.4524561 118.557098,26.5892996 L118.557098,22.5609075 C118.566655,22.5588299 118.573719,22.5550903 118.583275,22.5530127 L118.583275,12.0987222 L118.538815,11.4347335 C118.538815,5.12060791 113.418041,-0.000166204937 107.102254,-0.000166204937 L107.100176,0.00191135678 L101.968183,0.00191135678 L101.968183,1.40426551 L107.079816,1.40426551 L107.079816,20.8311296 L107.074414,29.9645064 L107.074414,36.4265544 L107.120536,37.0909586 C107.120536,37.7956675 107.189096,38.5207366 107.311256,39.2553624 L107.312919,39.2848638 L107.316658,39.3014843 C108.112364,47.2822298 114.864855,53.5352751 123.052942,53.5352751 C131.772053,53.5352751 138.86651,46.4408173 138.86651,37.7196288 C138.86651,29.1521798 132.01762,22.159107 123.507928,21.9168633" id="Fill-27" fill="#1D1A1B"></path>
            <path d="M251.875106,76.3542573 L252.418596,76.3542573 C252.678707,76.3542573 252.855715,76.3151991 252.950036,76.2379138 C253.044773,76.160213 253.092142,76.057997 253.092142,75.9300192 C253.092142,75.8481633 253.069288,75.7746176 253.023997,75.7097976 C252.978291,75.6449777 252.914718,75.5963628 252.834108,75.5647838 C252.753083,75.5323739 252.603083,75.5165844 252.384524,75.5165844 L251.875106,75.5165844 L251.875106,76.3542573 Z M251.427184,77.9165837 L251.427184,75.1405457 L252.3812,75.1405457 C252.706962,75.1405457 252.942973,75.1663075 253.088817,75.217831 C253.234662,75.268939 253.351006,75.3582742 253.437432,75.4858365 C253.523859,75.6133988 253.567488,75.7492713 253.567488,75.8930386 C253.567488,76.0953931 253.494773,76.2724014 253.350175,76.4224013 C253.205576,76.5728168 253.01361,76.6571658 252.774275,76.6754483 C252.872335,76.716584 252.950867,76.7656145 253.00987,76.8225397 C253.121643,76.932235 253.258762,77.1154759 253.420396,77.372678 L253.758623,77.9165837 L253.211809,77.9165837 L252.965826,77.4790492 C252.771781,77.1345895 252.615964,76.9193541 252.497543,76.832512 C252.415272,76.7689386 252.295604,76.7369442 252.138541,76.7369442 L251.875106,76.7369442 L251.875106,77.9165837 L251.427184,77.9165837 Z M252.559039,74.3373604 C252.196297,74.3373604 251.843942,74.4300196 251.500729,74.6157536 C251.157932,74.8019032 250.889511,75.067 250.695882,75.4122908 C250.501838,75.7575816 250.405023,76.1174152 250.405023,76.4909608 C250.405023,76.8624289 250.500176,77.218523 250.69048,77.5592431 C250.880785,77.8999632 251.147128,78.1654756 251.488679,78.3557802 C251.830646,78.5460849 252.187156,78.6412372 252.559039,78.6412372 C252.930507,78.6412372 253.287017,78.5460849 253.628983,78.3557802 C253.970535,78.1654756 254.236463,77.8999632 254.425521,77.5592431 C254.614579,77.218523 254.7089,76.8624289 254.7089,76.4909608 C254.7089,76.1174152 254.612917,75.7575816 254.420119,75.4122908 C254.227737,75.067 253.959316,74.8019032 253.615272,74.6157536 C253.270812,74.4300196 252.918873,74.3373604 252.559039,74.3373604 Z M252.559039,73.9097982 C252.992003,73.9097982 253.414579,74.0211555 253.827183,74.2434546 C254.239371,74.4653382 254.560978,74.7836206 254.791171,75.1970554 C255.021365,75.6104902 255.136462,76.041792 255.136462,76.4909608 C255.136462,76.9351435 255.023027,77.3627057 254.796158,77.7728164 C254.569288,78.1829271 254.251421,78.5016251 253.842557,78.7284948 C253.433277,78.9553646 253.005715,79.0683839 252.559039,79.0683839 C252.111948,79.0683839 251.684386,78.9553646 251.275106,78.7284948 C250.866242,78.5016251 250.547544,78.1829271 250.319843,77.7728164 C250.091727,77.3627057 249.977876,76.9351435 249.977876,76.4909608 C249.977876,76.041792 250.093389,75.6104902 250.324829,75.1970554 C250.55627,74.7836206 250.878292,74.4653382 251.29048,74.2434546 C251.703084,74.0211555 252.126075,73.9097982 252.559039,73.9097982 Z" id="Fill-28" fill="#000000"></path>
        </g>
    </g>
</svg>