<svg width="398" height="100" xmlns="http://www.w3.org/2000/svg"><path d="M61.544 78c8.526 0 13.706-2.877 20.395-9.548 4.722-4.709 8.067-11.053 8.526-19.096H66.331l-5.377 5.362v6.148h19.15c-1.181 1.831-5.313 5.231-12.658 5.231-10.034 0-17.838-7.586-17.838-18.18 0-4.708 1.312-7.979 3.213-9.875 1.902-1.897 4.59-3.074 8.854-3.074 4.919 0 10.165 1.766 14.56 5.428l6.36-5.886.722-1.962c-3.804-2.681-10.034-5.297-15.87-5.297-10.953 0-19.938 8.11-19.938 20.47 0 11.968 8.854 20.338 19.937 20.338 11.673 0 16.723-7.586 18.297-14.649h-18.1v-2.223h20.789c-1.115 9.286-7.87 19.227-20.986 19.227-12.854 0-22.625-9.876-22.625-22.694 0-13.602 11.017-22.823 22.625-22.823 6.755 0 12.788 2.68 16.592 5.493l.656-2.027C80.824 25.813 74.922 23 67.577 23c-7.804 0-14.165 3.27-19.478 8.567C41.541 38.107 38 45.563 38 53.934 38 68.19 49.74 78 61.544 78zm39.807-53.888h-1.968l-5.902 5.886v46.89h21.773l5.705-5.69v-1.83h-19.608V24.112zm4.46 0h-1.968v43.032h17.116v-1.831H105.81V24.112zm42.692 7.717l-10.624 26.486h20.724l-10.1-26.486zm.918 24.655h-8.853l4.59-11.314 4.263 11.314zM136.5 67.602h17.052l3.541 9.483h5.181l5.902-5.887-18.756-48.132h-1.836l-7.804 7.847-18.56 46.172h8l5.903-5.887 1.378-3.596zm28.856 1.766h-2.623l-3.28-8.83h-22.428l-3.344 8.83h-2.558l17.247-43.621h.263l16.723 43.62zm13.117-42.379h.196l20.527 27.86 20.33-27.86h.197v42.379h-2.36V34.183L199.196 58.84h-.066l-18.297-24.72v35.249h-2.36V26.989zm-1.968-3.335l-5.902 5.886v47.545h6.296l5.902-5.887-.066-20.338 11.87 15.696h1.312l13.575-18.574v29.103h6.296l5.903-5.887V23.654h-1.902l-9.248 6.606-13.575 18.246-18.625-24.852h-1.836zM266.81 53.41c0 4.12-1.114 7.325-3.213 9.417-2.099 2.093-4.853 3.27-8.985 3.27-10.82 0-18.035-8.044-18.035-18.638 0-4.512 1.247-7.913 3.345-10.006 2.099-2.092 5.247-3.27 9.575-3.27 9.969 0 17.313 7.586 17.313 19.227zm-35.02-5.755c0-12.621 10.1-22.758 22.626-22.758 12.722 0 22.625 9.94 22.625 22.758 0 12.622-10.1 22.759-22.625 22.759-12.723 0-22.626-9.94-22.626-22.759zm2.69 0c0 11.64 8.59 20.404 19.936 20.404s19.936-8.828 19.936-20.404c0-11.64-8.59-20.404-19.936-20.404s-19.937 8.763-19.937 20.404zm44.594-.13C279.074 33.79 268.188 23 254.547 23c-7.804 0-14.166 3.27-19.478 8.567-6.558 6.54-10.1 13.93-10.1 22.367C224.97 68.19 236.906 78 249.039 78c7.542 0 13.772-2.877 19.412-8.501 8.395-8.372 10.624-15.108 10.624-21.975zm32.462 24c3.738-3.727 7.41-8.959 7.41-16.088V24.112h-1.967v31.195c0 8.698-5.18 14.976-13.706 14.976s-13.707-6.41-13.707-14.976V24.112H287.6l-5.902 5.886v30.28c0 9.547 6.36 17.134 16.33 17.134 5.18 0 9.115-1.505 13.51-5.886zm-6.492-6.735c-.722.72-1.771 1.111-3.214 1.111-1.705 0-3.41-.654-4.853-2.027-1.77-1.7-2.951-4.316-2.951-8.894V24.112h-1.968V55.11c0 7.652 4.066 12.819 11.215 12.819s11.214-5.167 11.214-12.753V24.112h-1.968l-5.836 5.886v27.598c0 4.447-.655 6.213-1.64 7.194zm28.527-36.623v25.7h5.115c9.182 0 15.346-4.315 15.346-13.274 0-7.717-5.902-12.426-14.821-12.426h-5.64zm1.902 23.87V35.164h1.901c3.214 0 5.575 1.177 7.214 2.878a8.848 8.848 0 0 1 2.493 6.212c0 2.224-.59 4.382-1.77 5.625-1.378 1.439-2.82 2.158-6.363 2.158h-3.475zm19.15 17.33h-3.542l-16.657-13.471h-.853v13.472h-2.492V25.943h8.197c9.969 0 17.248 5.69 17.248 14.519 0 10.07-7.672 15.434-17.904 15.434h-.786l16.789 13.472zm-19.085-1.961l11.74 9.679h6.82L360 71.198l-13.968-11.183c3.213-2.419 6.95-5.951 9.05-8.763.983-1.308 3.54-5.035 3.54-10.79 0-9.941-7.738-16.35-19.28-16.35h-10.23l-5.903 5.886v47.087h6.427l5.902-5.887v-3.792z" fill="#000" fill-rule="nonzero"/></svg>
